<svg xmlns="http://www.w3.org/2000/svg" viewBox="0 0 800 612" width="800" height="612"
	preserveAspectRatio="xMidYMid meet"
	style="width: 100%; height: 100%; transform: translate3d(0px, 0px, 0px);background:#e9edf0;">
	<defs>
		<clipPath id="__lottie_element_2">
			<rect width="800" height="612" x="0" y="0"></rect>
		</clipPath>
	</defs>
	<g clip-path="url(#__lottie_element_2)">
		<g transform="matrix(1,0,0,1,35.01966094970703,197.9803466796875)" opacity="1" style="display: block;">
			<g opacity="1" transform="matrix(1,0,0,1,0,0)">
				<path stroke-linecap="butt" stroke-linejoin="miter" fill-opacity="0" stroke-miterlimit="4"
					stroke="rgb(255,255,255)" stroke-opacity="1" stroke-width="11.26184962207439"
					d=" M12,-125 C12,-125 45,-125 45,-125 C45,-125 45,-92 45,-92"></path>
			</g>
		</g>
		<g transform="matrix(1,0,0,1,35.01966094970703,288.9803466796875)" opacity="1" style="display: block;">
			<g opacity="1" transform="matrix(1,0,0,1,0,0)">
				<path stroke-linecap="butt" stroke-linejoin="miter" fill-opacity="0" stroke-miterlimit="4"
					stroke="rgb(255,255,255)" stroke-opacity="1" stroke-width="11.26184962207439"
					d=" M12,-125 C12,-125 45,-125 45,-125 C45,-125 45,-92 45,-92"></path>
			</g>
		</g>
		<g transform="matrix(1,0,0,1,35.01966094970703,378.9803466796875)" opacity="1" style="display: block;">
			<g opacity="1" transform="matrix(1,0,0,1,0,0)">
				<path stroke-linecap="butt" stroke-linejoin="miter" fill-opacity="0" stroke-miterlimit="4"
					stroke="rgb(255,255,255)" stroke-opacity="1" stroke-width="11.26184962207439"
					d=" M12,-125 C12,-125 45,-125 45,-125 C45,-125 45,-92 45,-92"></path>
			</g>
		</g>
		<g transform="matrix(1,0,0,1,35.01966094970703,467.9803466796875)" opacity="1" style="display: block;">
			<g opacity="1" transform="matrix(1,0,0,1,0,0)">
				<path stroke-linecap="butt" stroke-linejoin="miter" fill-opacity="0" stroke-miterlimit="4"
					stroke="rgb(255,255,255)" stroke-opacity="1" stroke-width="11.26184962207439"
					d=" M12,-125 C12,-125 45,-125 45,-125 C45,-125 45,-92 45,-92"></path>
			</g>
		</g>
		<g transform="matrix(1,0,0,1,35.01966094970703,557.9803466796875)" opacity="1" style="display: block;">
			<g opacity="1" transform="matrix(1,0,0,1,0,0)">
				<path stroke-linecap="butt" stroke-linejoin="miter" fill-opacity="0" stroke-miterlimit="4"
					stroke="rgb(255,255,255)" stroke-opacity="1" stroke-width="11.26184962207439"
					d=" M12,-125 C12,-125 45,-125 45,-125 C45,-125 45,-92 45,-92"></path>
			</g>
		</g>
		<g transform="matrix(1,0,0,1,685.0196533203125,648.9803466796875)" opacity="1" style="display: block;">
			<g opacity="1" transform="matrix(1,0,0,1,0,0)">
				<path stroke-linecap="butt" stroke-linejoin="miter" fill-opacity="0" stroke-miterlimit="4"
					stroke="rgb(255,255,255)" stroke-opacity="1" stroke-width="11.26184962207439"
					d=" M12,-125 C12,-125 45,-125 45,-125 C45,-125 45,-92 45,-92"></path>
			</g>
		</g>
		<g transform="matrix(1,0,0,1,35.01966094970703,648.9803466796875)" opacity="1" style="display: block;">
			<g opacity="1" transform="matrix(1,0,0,1,0,0)">
				<path stroke-linecap="butt" stroke-linejoin="miter" fill-opacity="0" stroke-miterlimit="4"
					stroke="rgb(255,255,255)" stroke-opacity="1" stroke-width="11.26184962207439"
					d=" M12,-125 C12,-125 45,-125 45,-125 C45,-125 45,-92 45,-92"></path>
			</g>
		</g>
		<g transform="matrix(1,0,0,1,555.0196533203125,648.9803466796875)" opacity="1" style="display: block;">
			<g opacity="1" transform="matrix(1,0,0,1,0,0)">
				<path stroke-linecap="butt" stroke-linejoin="miter" fill-opacity="0" stroke-miterlimit="4"
					stroke="rgb(255,255,255)" stroke-opacity="1" stroke-width="11.26184962207439"
					d=" M12,-125 C12,-125 45,-125 45,-125 C45,-125 45,-92 45,-92"></path>
			</g>
		</g>
		<g transform="matrix(1,0,0,1,425.0196533203125,648.9803466796875)" opacity="1" style="display: block;">
			<g opacity="1" transform="matrix(1,0,0,1,0,0)">
				<path stroke-linecap="butt" stroke-linejoin="miter" fill-opacity="0" stroke-miterlimit="4"
					stroke="rgb(255,255,255)" stroke-opacity="1" stroke-width="11.26184962207439"
					d=" M12,-125 C12,-125 45,-125 45,-125 C45,-125 45,-92 45,-92"></path>
			</g>
		</g>
		<g transform="matrix(1,0,0,1,295.0196533203125,648.9803466796875)" opacity="1" style="display: block;">
			<g opacity="1" transform="matrix(1,0,0,1,0,0)">
				<path stroke-linecap="butt" stroke-linejoin="miter" fill-opacity="0" stroke-miterlimit="4"
					stroke="rgb(255,255,255)" stroke-opacity="1" stroke-width="11.26184962207439"
					d=" M12,-125 C12,-125 45,-125 45,-125 C45,-125 45,-92 45,-92"></path>
			</g>
		</g>
		<g transform="matrix(1,0,0,1,165.0196533203125,648.9803466796875)" opacity="1" style="display: block;">
			<g opacity="1" transform="matrix(1,0,0,1,0,0)">
				<path stroke-linecap="butt" stroke-linejoin="miter" fill-opacity="0" stroke-miterlimit="4"
					stroke="rgb(255,255,255)" stroke-opacity="1" stroke-width="11.26184962207439"
					d=" M12,-125 C12,-125 45,-125 45,-125 C45,-125 45,-92 45,-92"></path>
			</g>
		</g>
		<g transform="matrix(1,0,0,1,163.38937377929688,199.61062622070312)" opacity="1" style="display: block;">
			<g opacity="1" transform="matrix(1,0,0,1,0,0)">
				<path stroke-linecap="butt" stroke-linejoin="miter" fill-opacity="0" stroke-miterlimit="4"
					stroke="rgb(255,255,255)" stroke-opacity="1" stroke-width="10.944658557769692"
					d=" M12,-125 C12,-125 45,-125 45,-125 C45,-125 45,-92 45,-92"></path>
			</g>
		</g>
		<g transform="matrix(1,0,0,1,163.38937377929688,290.6106262207031)" opacity="1" style="display: block;">
			<g opacity="1" transform="matrix(1,0,0,1,0,0)">
				<path stroke-linecap="butt" stroke-linejoin="miter" fill-opacity="0" stroke-miterlimit="4"
					stroke="rgb(255,255,255)" stroke-opacity="1" stroke-width="10.944658557769692"
					d=" M12,-125 C12,-125 45,-125 45,-125 C45,-125 45,-92 45,-92"></path>
			</g>
		</g>
		<g transform="matrix(1,0,0,1,163.38937377929688,380.6106262207031)" opacity="1" style="display: block;">
			<g opacity="1" transform="matrix(1,0,0,1,0,0)">
				<path stroke-linecap="butt" stroke-linejoin="miter" fill-opacity="0" stroke-miterlimit="4"
					stroke="rgb(255,255,255)" stroke-opacity="1" stroke-width="10.944658557769692"
					d=" M12,-125 C12,-125 45,-125 45,-125 C45,-125 45,-92 45,-92"></path>
			</g>
		</g>
		<g transform="matrix(1,0,0,1,163.38937377929688,469.6106262207031)" opacity="1" style="display: block;">
			<g opacity="1" transform="matrix(1,0,0,1,0,0)">
				<path stroke-linecap="butt" stroke-linejoin="miter" fill-opacity="0" stroke-miterlimit="4"
					stroke="rgb(255,255,255)" stroke-opacity="1" stroke-width="10.944658557769692"
					d=" M12,-125 C12,-125 45,-125 45,-125 C45,-125 45,-92 45,-92"></path>
			</g>
		</g>
		<g transform="matrix(1,0,0,1,683.3893432617188,559.610595703125)" opacity="1" style="display: block;">
			<g opacity="1" transform="matrix(1,0,0,1,0,0)">
				<path stroke-linecap="butt" stroke-linejoin="miter" fill-opacity="0" stroke-miterlimit="4"
					stroke="rgb(255,255,255)" stroke-opacity="1" stroke-width="10.944658557769692"
					d=" M12,-125 C12,-125 45,-125 45,-125 C45,-125 45,-92 45,-92"></path>
			</g>
		</g>
		<g transform="matrix(1,0,0,1,553.3893432617188,559.610595703125)" opacity="1" style="display: block;">
			<g opacity="1" transform="matrix(1,0,0,1,0,0)">
				<path stroke-linecap="butt" stroke-linejoin="miter" fill-opacity="0" stroke-miterlimit="4"
					stroke="rgb(255,255,255)" stroke-opacity="1" stroke-width="10.944658557769692"
					d=" M12,-125 C12,-125 45,-125 45,-125 C45,-125 45,-92 45,-92"></path>
			</g>
		</g>
		<g transform="matrix(1,0,0,1,423.3893737792969,559.610595703125)" opacity="1" style="display: block;">
			<g opacity="1" transform="matrix(1,0,0,1,0,0)">
				<path stroke-linecap="butt" stroke-linejoin="miter" fill-opacity="0" stroke-miterlimit="4"
					stroke="rgb(255,255,255)" stroke-opacity="1" stroke-width="10.944658557769692"
					d=" M12,-125 C12,-125 45,-125 45,-125 C45,-125 45,-92 45,-92"></path>
			</g>
		</g>
		<g transform="matrix(1,0,0,1,293.3893737792969,559.610595703125)" opacity="1" style="display: block;">
			<g opacity="1" transform="matrix(1,0,0,1,0,0)">
				<path stroke-linecap="butt" stroke-linejoin="miter" fill-opacity="0" stroke-miterlimit="4"
					stroke="rgb(255,255,255)" stroke-opacity="1" stroke-width="10.944658557769692"
					d=" M12,-125 C12,-125 45,-125 45,-125 C45,-125 45,-92 45,-92"></path>
			</g>
		</g>
		<g transform="matrix(1,0,0,1,163.38937377929688,559.610595703125)" opacity="1" style="display: block;">
			<g opacity="1" transform="matrix(1,0,0,1,0,0)">
				<path stroke-linecap="butt" stroke-linejoin="miter" fill-opacity="0" stroke-miterlimit="4"
					stroke="rgb(255,255,255)" stroke-opacity="1" stroke-width="10.944658557769692"
					d=" M12,-125 C12,-125 45,-125 45,-125 C45,-125 45,-92 45,-92"></path>
			</g>
		</g>
		<g transform="matrix(1,0,0,1,291.67132568359375,201.32867431640625)" opacity="1" style="display: block;">
			<g opacity="1" transform="matrix(1,0,0,1,0,0)">
				<path stroke-linecap="butt" stroke-linejoin="miter" fill-opacity="0" stroke-miterlimit="4"
					stroke="rgb(255,255,255)" stroke-opacity="1" stroke-width="10.538028121669036"
					d=" M12,-125 C12,-125 45,-125 45,-125 C45,-125 45,-92 45,-92"></path>
			</g>
		</g>
		<g transform="matrix(1,0,0,1,291.67132568359375,292.32867431640625)" opacity="1" style="display: block;">
			<g opacity="1" transform="matrix(1,0,0,1,0,0)">
				<path stroke-linecap="butt" stroke-linejoin="miter" fill-opacity="0" stroke-miterlimit="4"
					stroke="rgb(255,255,255)" stroke-opacity="1" stroke-width="10.538028121669036"
					d=" M12,-125 C12,-125 45,-125 45,-125 C45,-125 45,-92 45,-92"></path>
			</g>
		</g>
		<g transform="matrix(1,0,0,1,291.67132568359375,382.32867431640625)" opacity="1" style="display: block;">
			<g opacity="1" transform="matrix(1,0,0,1,0,0)">
				<path stroke-linecap="butt" stroke-linejoin="miter" fill-opacity="0" stroke-miterlimit="4"
					stroke="rgb(255,255,255)" stroke-opacity="1" stroke-width="10.538028121669036"
					d=" M12,-125 C12,-125 45,-125 45,-125 C45,-125 45,-92 45,-92"></path>
			</g>
		</g>
		<g transform="matrix(1,0,0,1,681.6713256835938,471.32867431640625)" opacity="1" style="display: block;">
			<g opacity="1" transform="matrix(1,0,0,1,0,0)">
				<path stroke-linecap="butt" stroke-linejoin="miter" fill-opacity="0" stroke-miterlimit="4"
					stroke="rgb(255,255,255)" stroke-opacity="1" stroke-width="10.538028121669036"
					d=" M12,-125 C12,-125 45,-125 45,-125 C45,-125 45,-92 45,-92"></path>
			</g>
		</g>
		<g transform="matrix(1,0,0,1,551.6713256835938,471.32867431640625)" opacity="1" style="display: block;">
			<g opacity="1" transform="matrix(1,0,0,1,0,0)">
				<path stroke-linecap="butt" stroke-linejoin="miter" fill-opacity="0" stroke-miterlimit="4"
					stroke="rgb(255,255,255)" stroke-opacity="1" stroke-width="10.538028121669036"
					d=" M12,-125 C12,-125 45,-125 45,-125 C45,-125 45,-92 45,-92"></path>
			</g>
		</g>
		<g transform="matrix(1,0,0,1,421.67132568359375,471.32867431640625)" opacity="1" style="display: block;">
			<g opacity="1" transform="matrix(1,0,0,1,0,0)">
				<path stroke-linecap="butt" stroke-linejoin="miter" fill-opacity="0" stroke-miterlimit="4"
					stroke="rgb(255,255,255)" stroke-opacity="1" stroke-width="10.538028121669036"
					d=" M12,-125 C12,-125 45,-125 45,-125 C45,-125 45,-92 45,-92"></path>
			</g>
		</g>
		<g transform="matrix(1,0,0,1,291.67132568359375,471.32867431640625)" opacity="1" style="display: block;">
			<g opacity="1" transform="matrix(1,0,0,1,0,0)">
				<path stroke-linecap="butt" stroke-linejoin="miter" fill-opacity="0" stroke-miterlimit="4"
					stroke="rgb(255,255,255)" stroke-opacity="1" stroke-width="10.538028121669036"
					d=" M12,-125 C12,-125 45,-125 45,-125 C45,-125 45,-92 45,-92"></path>
			</g>
		</g>
		<g transform="matrix(1,0,0,1,419.8443298339844,203.15567016601562)" opacity="1" style="display: block;">
			<g opacity="1" transform="matrix(1,0,0,1,0,0)">
				<path stroke-linecap="butt" stroke-linejoin="miter" fill-opacity="0" stroke-miterlimit="4"
					stroke="rgb(255,255,255)" stroke-opacity="1" stroke-width="10.017962092149812"
					d=" M12,-125 C12,-125 45,-125 45,-125 C45,-125 45,-92 45,-92"></path>
			</g>
		</g>
		<g transform="matrix(1,0,0,1,419.8443298339844,294.15570068359375)" opacity="1" style="display: block;">
			<g opacity="1" transform="matrix(1,0,0,1,0,0)">
				<path stroke-linecap="butt" stroke-linejoin="miter" fill-opacity="0" stroke-miterlimit="4"
					stroke="rgb(255,255,255)" stroke-opacity="1" stroke-width="10.017962092149812"
					d=" M12,-125 C12,-125 45,-125 45,-125 C45,-125 45,-92 45,-92"></path>
			</g>
		</g>
		<g transform="matrix(1,0,0,1,679.8442993164062,384.1556701660156)" opacity="1" style="display: block;">
			<g opacity="1" transform="matrix(1,0,0,1,0,0)">
				<path stroke-linecap="butt" stroke-linejoin="miter" fill-opacity="0" stroke-miterlimit="4"
					stroke="rgb(255,255,255)" stroke-opacity="1" stroke-width="10.017962092149812"
					d=" M12,-125 C12,-125 45,-125 45,-125 C45,-125 45,-92 45,-92"></path>
			</g>
		</g>
		<g transform="matrix(1,0,0,1,549.8442993164062,384.1556701660156)" opacity="1" style="display: block;">
			<g opacity="1" transform="matrix(1,0,0,1,0,0)">
				<path stroke-linecap="butt" stroke-linejoin="miter" fill-opacity="0" stroke-miterlimit="4"
					stroke="rgb(255,255,255)" stroke-opacity="1" stroke-width="10.017962092149812"
					d=" M12,-125 C12,-125 45,-125 45,-125 C45,-125 45,-92 45,-92"></path>
			</g>
		</g>
		<g transform="matrix(1,0,0,1,419.8443298339844,384.1556701660156)" opacity="1" style="display: block;">
			<g opacity="1" transform="matrix(1,0,0,1,0,0)">
				<path stroke-linecap="butt" stroke-linejoin="miter" fill-opacity="0" stroke-miterlimit="4"
					stroke="rgb(255,255,255)" stroke-opacity="1" stroke-width="10.017962092149812"
					d=" M12,-125 C12,-125 45,-125 45,-125 C45,-125 45,-92 45,-92"></path>
			</g>
		</g>
		<g transform="matrix(1,0,0,1,547.8778076171875,205.1221923828125)" opacity="1" style="display: block;">
			<g opacity="1" transform="matrix(1,0,0,1,0,0)">
				<path stroke-linecap="butt" stroke-linejoin="miter" fill-opacity="0" stroke-miterlimit="4"
					stroke="rgb(255,255,255)" stroke-opacity="1" stroke-width="9.350096149479407"
					d=" M12,-125 C12,-125 45,-125 45,-125 C45,-125 45,-92 45,-92"></path>
			</g>
		</g>
		<g transform="matrix(1,0,0,1,677.8778076171875,296.1221923828125)" opacity="1" style="display: block;">
			<g opacity="1" transform="matrix(1,0,0,1,0,0)">
				<path stroke-linecap="butt" stroke-linejoin="miter" fill-opacity="0" stroke-miterlimit="4"
					stroke="rgb(255,255,255)" stroke-opacity="1" stroke-width="9.350096149479407"
					d=" M12,-125 C12,-125 45,-125 45,-125 C45,-125 45,-92 45,-92"></path>
			</g>
		</g>
		<g transform="matrix(1,0,0,1,547.8778076171875,296.1221923828125)" opacity="1" style="display: block;">
			<g opacity="1" transform="matrix(1,0,0,1,0,0)">
				<path stroke-linecap="butt" stroke-linejoin="miter" fill-opacity="0" stroke-miterlimit="4"
					stroke="rgb(255,255,255)" stroke-opacity="1" stroke-width="9.350096149479407"
					d=" M12,-125 C12,-125 45,-125 45,-125 C45,-125 45,-92 45,-92"></path>
			</g>
		</g>
		<g transform="matrix(1,0,0,1,675.7265625,207.27346801757812)" opacity="1" style="display: block;">
			<g opacity="1" transform="matrix(1,0,0,1,0,0)">
				<path stroke-linecap="butt" stroke-linejoin="miter" fill-opacity="0" stroke-miterlimit="4"
					stroke="rgb(255,255,255)" stroke-opacity="1" stroke-width="8.484896747323043"
					d=" M12,-125 C12,-125 45,-125 45,-125 C45,-125 45,-92 45,-92"></path>
			</g>
		</g>
	</g>
</svg>